<svg xmlns="http://www.w3.org/2000/svg" xmlns:xlink="http://www.w3.org/1999/xlink" width="500" height="350" preserveAspectRatio="xMidYMid meet" version="1.0" viewBox="0 0 375 262.5" zoomAndPan="magnify"><defs><clipPath id="id1"><path d="M 0.355469 20.351562 L 374.640625 20.351562 L 374.640625 241.792969 L 0.355469 241.792969 Z M 0.355469 20.351562" clip-rule="nonzero"/></clipPath><clipPath id="id2"><path d="M 39.65625 37.003906 L 87.46875 37.003906 L 87.46875 84.8125 L 39.65625 84.8125 Z M 39.65625 37.003906" clip-rule="nonzero"/></clipPath><clipPath id="id3"><path d="M 63.5625 37.003906 L 87.46875 60.910156 L 63.5625 84.8125 L 39.65625 60.910156 L 63.5625 37.003906" clip-rule="nonzero"/></clipPath><linearGradient id="id4" x1="-2.536" x2="66.54" y1="-116.802" y2="-174.752" gradientTransform="matrix(0.747049, 0, 0, -0.747049, 39.65578, -47.996197)" gradientUnits="userSpaceOnUse"><stop offset="0" stop-color="#FF0" stop-opacity="1"/><stop offset=".125" stop-color="#FF0" stop-opacity="1"/><stop offset=".188" stop-color="#FF0" stop-opacity="1"/><stop offset=".219" stop-color="#FF0" stop-opacity="1"/><stop offset=".234" stop-color="#FF0" stop-opacity="1"/><stop offset=".242" stop-color="#FFFE01" stop-opacity="1"/><stop offset=".25" stop-color="#FFFD01" stop-opacity="1"/><stop offset=".258" stop-color="#FFFD02" stop-opacity="1"/><stop offset=".266" stop-color="#FFFC03" stop-opacity="1"/><stop offset=".273" stop-color="#FFFB03" stop-opacity="1"/><stop offset=".281" stop-color="#FFFA04" stop-opacity="1"/><stop offset=".289" stop-color="#FFFA05" stop-opacity="1"/><stop offset=".297" stop-color="#FFF905" stop-opacity="1"/><stop offset=".305" stop-color="#FEF806" stop-opacity="1"/><stop offset=".313" stop-color="#FEF707" stop-opacity="1"/><stop offset=".32" stop-color="#FEF707" stop-opacity="1"/><stop offset=".328" stop-color="#FEF608" stop-opacity="1"/><stop offset=".336" stop-color="#FEF508" stop-opacity="1"/><stop offset=".344" stop-color="#FEF409" stop-opacity="1"/><stop offset=".352" stop-color="#FEF40A" stop-opacity="1"/><stop offset=".359" stop-color="#FEF30A" stop-opacity="1"/><stop offset=".367" stop-color="#FEF20B" stop-opacity="1"/><stop offset=".375" stop-color="#FEF10C" stop-opacity="1"/><stop offset=".383" stop-color="#FEF00C" stop-opacity="1"/><stop offset=".391" stop-color="#FEF00D" stop-opacity="1"/><stop offset=".398" stop-color="#FEEF0E" stop-opacity="1"/><stop offset=".406" stop-color="#FEEE0F" stop-opacity="1"/><stop offset=".414" stop-color="#FEED10" stop-opacity="1"/><stop offset=".422" stop-color="#FEEC10" stop-opacity="1"/><stop offset=".43" stop-color="#FDEB11" stop-opacity="1"/><stop offset=".438" stop-color="#FDEA12" stop-opacity="1"/><stop offset=".445" stop-color="#FDE913" stop-opacity="1"/><stop offset=".453" stop-color="#FDE814" stop-opacity="1"/><stop offset=".456" stop-color="#FDE714" stop-opacity="1"/><stop offset=".461" stop-color="#FDE615" stop-opacity="1"/><stop offset=".469" stop-color="#FDE615" stop-opacity="1"/><stop offset=".484" stop-color="#FDE516" stop-opacity="1"/><stop offset=".5" stop-color="#FDE415" stop-opacity="1"/><stop offset=".516" stop-color="#FDE415" stop-opacity="1"/><stop offset=".531" stop-color="#FDE315" stop-opacity="1"/><stop offset=".544" stop-color="#FDE214" stop-opacity="1"/><stop offset=".547" stop-color="#FDE214" stop-opacity="1"/><stop offset=".563" stop-color="#FDE214" stop-opacity="1"/><stop offset=".578" stop-color="#FDE113" stop-opacity="1"/><stop offset=".586" stop-color="#FDE012" stop-opacity="1"/><stop offset=".594" stop-color="#FDDF12" stop-opacity="1"/><stop offset=".602" stop-color="#FDDE11" stop-opacity="1"/><stop offset=".609" stop-color="#FDDD10" stop-opacity="1"/><stop offset=".617" stop-color="#FDDC0F" stop-opacity="1"/><stop offset=".625" stop-color="#FDDB0E" stop-opacity="1"/><stop offset=".633" stop-color="#FEDA0D" stop-opacity="1"/><stop offset=".641" stop-color="#FED90C" stop-opacity="1"/><stop offset=".648" stop-color="#FED90B" stop-opacity="1"/><stop offset=".656" stop-color="#FED80A" stop-opacity="1"/><stop offset=".664" stop-color="#FED709" stop-opacity="1"/><stop offset=".672" stop-color="#FED609" stop-opacity="1"/><stop offset=".676" stop-color="#FED508" stop-opacity="1"/><stop offset=".68" stop-color="#FED407" stop-opacity="1"/><stop offset=".684" stop-color="#FED307" stop-opacity="1"/><stop offset=".688" stop-color="#FED306" stop-opacity="1"/><stop offset=".691" stop-color="#FED205" stop-opacity="1"/><stop offset=".695" stop-color="#FED105" stop-opacity="1"/><stop offset=".699" stop-color="#FED104" stop-opacity="1"/><stop offset=".703" stop-color="#FFD004" stop-opacity="1"/><stop offset=".707" stop-color="#FFCF03" stop-opacity="1"/><stop offset=".711" stop-color="#FFCF03" stop-opacity="1"/><stop offset=".715" stop-color="#FFCE02" stop-opacity="1"/><stop offset=".719" stop-color="#FFCE01" stop-opacity="1"/><stop offset=".723" stop-color="#FFCD01" stop-opacity="1"/><stop offset=".727" stop-color="#FC0" stop-opacity="1"/><stop offset=".734" stop-color="#FC0" stop-opacity="1"/><stop offset=".75" stop-color="#FC0" stop-opacity="1"/><stop offset="1" stop-color="#FC0" stop-opacity="1"/></linearGradient><clipPath id="id5"><path d="M 63 54 L 87.46875 54 L 87.46875 84.8125 L 63 84.8125 Z M 63 54" clip-rule="nonzero"/></clipPath><clipPath id="id6"><path d="M 72.636719 63.328125 L 63.5625 84.8125 L 87.46875 60.910156 L 81.257812 54.691406 Z M 72.636719 63.328125" clip-rule="nonzero"/></clipPath><linearGradient id="id7" x1="26.27" x2="67.398" y1="-146.621" y2="-172.348" gradientTransform="matrix(0.747049, 0, 0, -0.747049, 39.65578, -47.996197)" gradientUnits="userSpaceOnUse"><stop offset="0" stop-color="#874400" stop-opacity="1"/><stop offset=".25" stop-color="#874400" stop-opacity="1"/><stop offset=".313" stop-color="#874400" stop-opacity="1"/><stop offset=".328" stop-color="#874400" stop-opacity="1"/><stop offset=".336" stop-color="#874400" stop-opacity="1"/><stop offset=".34" stop-color="#8E4A00" stop-opacity="1"/><stop offset=".344" stop-color="#945000" stop-opacity="1"/><stop offset=".348" stop-color="#9B5600" stop-opacity="1"/><stop offset=".352" stop-color="#A25C00" stop-opacity="1"/><stop offset=".355" stop-color="#A96200" stop-opacity="1"/><stop offset=".359" stop-color="#B06800" stop-opacity="1"/><stop offset=".363" stop-color="#B76E00" stop-opacity="1"/><stop offset=".367" stop-color="#BE7400" stop-opacity="1"/><stop offset=".371" stop-color="#C57A00" stop-opacity="1"/><stop offset=".375" stop-color="#CC8000" stop-opacity="1"/><stop offset=".379" stop-color="#D28500" stop-opacity="1"/><stop offset=".383" stop-color="#D98B00" stop-opacity="1"/><stop offset=".387" stop-color="#DA8D00" stop-opacity="1"/><stop offset=".391" stop-color="#DC8F00" stop-opacity="1"/><stop offset=".395" stop-color="#DE9200" stop-opacity="1"/><stop offset=".398" stop-color="#E09400" stop-opacity="1"/><stop offset=".402" stop-color="#E29700" stop-opacity="1"/><stop offset=".406" stop-color="#E49900" stop-opacity="1"/><stop offset=".41" stop-color="#E69B00" stop-opacity="1"/><stop offset=".414" stop-color="#E79E00" stop-opacity="1"/><stop offset=".418" stop-color="#E8A000" stop-opacity="1"/><stop offset=".422" stop-color="#E9A200" stop-opacity="1"/><stop offset=".426" stop-color="#EAA400" stop-opacity="1"/><stop offset=".43" stop-color="#EBA600" stop-opacity="1"/><stop offset=".434" stop-color="#ECA800" stop-opacity="1"/><stop offset=".438" stop-color="#EDAA00" stop-opacity="1"/><stop offset=".441" stop-color="#EEAC00" stop-opacity="1"/><stop offset=".445" stop-color="#EFAF00" stop-opacity="1"/><stop offset=".449" stop-color="#F0B100" stop-opacity="1"/><stop offset=".453" stop-color="#F1B300" stop-opacity="1"/><stop offset=".457" stop-color="#F2B500" stop-opacity="1"/><stop offset=".461" stop-color="#F3B700" stop-opacity="1"/><stop offset=".465" stop-color="#F3BA00" stop-opacity="1"/><stop offset=".469" stop-color="#F4BC01" stop-opacity="1"/><stop offset=".473" stop-color="#F5BE01" stop-opacity="1"/><stop offset=".477" stop-color="#F5C101" stop-opacity="1"/><stop offset=".48" stop-color="#F6C301" stop-opacity="1"/><stop offset=".484" stop-color="#F6C501" stop-opacity="1"/><stop offset=".488" stop-color="#F7C701" stop-opacity="1"/><stop offset=".492" stop-color="#F8CA01" stop-opacity="1"/><stop offset=".496" stop-color="#F8CC02" stop-opacity="1"/><stop offset=".5" stop-color="#F9CE02" stop-opacity="1"/><stop offset=".504" stop-color="#F9D002" stop-opacity="1"/><stop offset=".508" stop-color="#FAD202" stop-opacity="1"/><stop offset=".512" stop-color="#FAD302" stop-opacity="1"/><stop offset=".516" stop-color="#FBD402" stop-opacity="1"/><stop offset=".52" stop-color="#FBD502" stop-opacity="1"/><stop offset=".523" stop-color="#FBD602" stop-opacity="1"/><stop offset=".527" stop-color="#FBD702" stop-opacity="1"/><stop offset=".531" stop-color="#FCD802" stop-opacity="1"/><stop offset=".535" stop-color="#FCD903" stop-opacity="1"/><stop offset=".539" stop-color="#FCDA03" stop-opacity="1"/><stop offset=".543" stop-color="#FDDA03" stop-opacity="1"/><stop offset=".547" stop-color="#FDDB03" stop-opacity="1"/><stop offset=".551" stop-color="#FDDC03" stop-opacity="1"/><stop offset=".555" stop-color="#FDDD03" stop-opacity="1"/><stop offset=".559" stop-color="#FEDE03" stop-opacity="1"/><stop offset=".563" stop-color="#FEDF03" stop-opacity="1"/><stop offset=".625" stop-color="#FEDF03" stop-opacity="1"/><stop offset=".75" stop-color="#FEDF03" stop-opacity="1"/><stop offset="1" stop-color="#FEDF03" stop-opacity="1"/></linearGradient><clipPath id="id8"><path d="M 266.285156 161.011719 L 312 161.011719 L 312 216.371094 L 266.285156 216.371094 Z M 266.285156 161.011719" clip-rule="nonzero"/></clipPath><clipPath id="id9"><path d="M 311 161.011719 L 356.875 161.011719 L 356.875 216.371094 L 311 216.371094 Z M 311 161.011719" clip-rule="nonzero"/></clipPath></defs><g clip-path="url(#id1)"><path fill="#000" fill-opacity="1" fill-rule="nonzero" d="M 347.792969 241.789062 L 27.902344 241.789062 C 12.761719 241.789062 0.492188 229.53125 0.492188 214.40625 L 0.492188 47.738281 C 0.492188 32.617188 12.761719 20.355469 27.902344 20.355469 L 347.792969 20.355469 C 362.933594 20.355469 375.203125 32.617188 375.203125 47.738281 L 375.203125 214.40625 C 375.203125 229.53125 362.933594 241.789062 347.792969 241.789062"/></g><path fill="#91918c" fill-opacity="1" fill-rule="nonzero" d="M 57.996094 136.578125 L 57.996094 126.285156 L 40.875 126.285156 L 40.875 136.578125 Z M 73.28125 137.730469 L 69.089844 139.6875 L 69.089844 145.011719 L 73.601562 151.355469 L 83.882812 151.355469 C 87.628906 151.355469 90.664062 148.320312 90.664062 144.578125 L 90.664062 137.730469 Z M 62.542969 144.65625 L 62.542969 139.777344 L 58.4375 137.730469 L 40.875 137.730469 L 40.875 144.578125 C 40.875 148.320312 43.910156 151.355469 47.65625 151.355469 L 57.835938 151.355469 Z M 69.089844 117.941406 L 69.089844 122.824219 L 67.941406 122.824219 L 67.941406 117.605469 L 72.296875 110.789062 L 59.160156 110.789062 L 63.695312 117.808594 L 63.695312 123.140625 L 59.148438 126.027344 L 59.148438 136.800781 L 63.695312 139.070312 L 63.695312 145.019531 L 59.242188 151.355469 L 72.191406 151.355469 L 67.941406 145.382812 L 67.941406 138.953125 L 72.578125 136.789062 L 72.578125 125.136719 L 90.664062 125.136719 L 90.664062 117.566406 C 90.664062 113.824219 87.628906 110.789062 83.882812 110.789062 L 73.664062 110.789062 Z M 58.40625 125.136719 L 62.542969 122.507812 L 62.542969 118.148438 L 57.789062 110.789062 L 47.65625 110.789062 C 43.910156 110.789062 40.875 113.824219 40.875 117.566406 L 40.875 125.136719 Z M 73.730469 136.578125 L 73.730469 126.285156 L 90.664062 126.285156 L 90.664062 136.578125 L 73.730469 136.578125"/><path fill="#f06518" fill-opacity="1" fill-rule="nonzero" d="M 339.9375 190.03125 C 339.9375 201.199219 330.875 210.257812 319.691406 210.257812 C 315 210.257812 310.683594 208.65625 307.25 205.980469 C 303.820312 208.65625 299.503906 210.257812 294.8125 210.257812 C 283.628906 210.257812 274.566406 201.199219 274.566406 190.03125 C 274.566406 178.863281 283.628906 169.808594 294.8125 169.808594 C 299.503906 169.808594 303.820312 171.40625 307.25 174.082031 C 310.683594 171.40625 315 169.808594 319.691406 169.808594 C 330.875 169.808594 339.9375 178.863281 339.9375 190.03125"/><g clip-path="url(#id2)"><g clip-path="url(#id3)"><path fill="url(#id4)" fill-rule="nonzero" d="M 39.65625 84.8125 L 39.65625 37.003906 L 87.46875 37.003906 L 87.46875 84.8125 Z M 39.65625 84.8125"/></g></g><g clip-path="url(#id5)"><g clip-path="url(#id6)"><path fill="url(#id7)" fill-rule="nonzero" d="M 63.5625 84.8125 L 63.5625 54.691406 L 87.46875 54.691406 L 87.46875 84.8125 Z M 63.5625 84.8125"/></g></g><path fill="#ff5f00" fill-opacity="1" fill-rule="nonzero" d="M 299.328125 167.167969 L 323.828125 167.167969 L 323.828125 210.210938 L 299.328125 210.210938 Z M 299.328125 167.167969"/><g clip-path="url(#id8)"><path fill="#eb001b" fill-opacity="1" fill-rule="nonzero" d="M 300.886719 188.691406 C 300.886719 179.960938 305.066406 172.183594 311.578125 167.171875 C 306.648438 163.371094 300.554688 161.3125 294.28125 161.316406 C 278.816406 161.316406 266.285156 173.574219 266.285156 188.691406 C 266.285156 203.808594 278.816406 216.066406 294.277344 216.066406 C 300.554688 216.074219 306.648438 214.015625 311.574219 210.210938 C 305.066406 205.199219 300.886719 197.425781 300.886719 188.691406 Z M 300.886719 188.691406"/></g><g clip-path="url(#id9)"><path fill="#f79e1b" fill-opacity="1" fill-rule="nonzero" d="M 356.875 188.691406 C 356.875 203.808594 344.339844 216.066406 328.882812 216.066406 C 322.605469 216.074219 316.507812 214.015625 311.578125 210.210938 C 318.089844 205.199219 322.273438 197.425781 322.273438 188.691406 C 322.273438 179.960938 318.089844 172.183594 311.578125 167.171875 C 316.507812 163.371094 322.605469 161.3125 328.882812 161.316406 C 344.339844 161.316406 356.875 173.574219 356.875 188.691406 Z M 356.875 188.691406"/></g></svg>